<?xml version="1.0" encoding="UTF-8"?>
<svg id="Layer_2" xmlns="http://www.w3.org/2000/svg" version="1.1" viewBox="0 0 308.2 82.6">
  <!-- Generator: Adobe Illustrator 30.5.1, SVG Export Plug-In . SVG Version: 2.1.4 Build 3)  -->
  <defs>
    <style>
      .st0 {
        fill: #f15a29;
      }

      .st1 {
        fill: #fff;
      }
    </style>
  </defs>
  <g id="Layer_1-2">
    <g>
      <g>
        <g>
          <path class="st1" d="M111.4,21.9v32.9l-6-6h28.9v11.9h-36.2V21.9h13.4Z"/>
          <path class="st1" d="M153,41.3l-2.4,14.5-5.1-5.6h29.5v10.6h-37.6l2.9-19.4-2.9-19.4h37.3v10.6h-29.2l5.1-5.6,2.4,14.5h0ZM173.1,36.7v9.2h-29.2v-9.2h29.2Z"/>
          <path class="st1" d="M178.2,21.9h41.3v11.9h-41.3v-11.9h0ZM192.2,27.6h13.4v33.1h-13.4V27.6Z"/>
          <path class="st1" d="M236.6,42.9c0,1.4.2,2.6.8,3.7s1.3,1.8,2.3,2.4c1,.5,2.4.8,4,.8s3-.3,4-.8c1-.5,1.8-1.3,2.3-2.4s.7-2.3.7-3.7v-21h13.4v21.8c0,3.6-.9,6.8-2.5,9.5s-4.1,4.8-7.1,6.3-6.6,2.2-10.7,2.2-7.6-.8-10.7-2.2c-3.1-1.5-5.4-3.6-7.1-6.3-1.7-2.7-2.6-5.8-2.6-9.5v-21.8h13.4v21h0Z"/>
          <path class="st1" d="M266.5,47.9h13.6c.1.8.5,1.4,1.2,1.9.7.5,1.5,1,2.7,1.2s2.5.4,4.1.4,3.7-.2,4.8-.6,1.7-1.1,1.7-2-.3-1.2-1-1.6c-.7-.4-2-.7-4-.8l-6.4-.4c-5.8-.4-10-1.6-12.6-3.7-2.6-2.1-3.9-4.9-3.9-8.3s.8-5.3,2.5-7.2,4-3.4,7-4.4c3-1,6.5-1.5,10.5-1.5s7.4.5,10.4,1.6c3,1.1,5.4,2.6,7.2,4.6,1.8,2,2.8,4.3,2.9,6.9h-13.6c-.1-.6-.4-1.2-1-1.6s-1.4-.8-2.4-1c-1-.2-2.3-.4-3.8-.4s-3.4.2-4.5.6-1.6,1-1.6,1.9.3,1.1,1,1.5,1.9.7,3.7.8l7.2.5c3.8.2,6.9.8,9.2,1.7s4.1,2.1,5.1,3.7c1.1,1.5,1.6,3.5,1.6,5.8s-.9,5.4-2.5,7.5-4.1,3.8-7.1,5-6.6,1.8-10.7,1.8-7.9-.6-11.1-1.7c-3.2-1.1-5.6-2.7-7.4-4.8s-2.7-4.5-2.8-7.2h0Z"/>
        </g>
        <g>
          <path class="st1" d="M98.5,67.8h6.5c1.2,0,2.2.3,2.9.8s1.1,1.4,1.1,2.5-.2,1.2-.5,1.7-.8.8-1.4,1.1h0c.8.2,1.5.6,1.9,1.2.4.6.6,1.3.6,2.2s0,1-.3,1.5-.5.8-.9,1.2c-.4.3-.9.6-1.5.8-.6.2-1.4.3-2.2.3h-6.2v-13.2h0ZM100.8,73.3h3.8c.6,0,1-.2,1.4-.5.4-.3.6-.8.6-1.4s-.2-1.1-.5-1.4c-.3-.3-.8-.4-1.5-.4h-3.8v3.7h0ZM100.8,79.1h4.2c.7,0,1.3-.2,1.7-.6.4-.4.6-.9.6-1.6s-.2-1.2-.6-1.5c-.4-.3-.9-.5-1.7-.5h-4.2v4.1h0Z"/>
          <path class="st1" d="M120,67.8h6.4c1.5,0,2.6.3,3.3.9.7.6,1.1,1.5,1.1,2.6s0,1.2-.3,1.6c-.2.4-.4.8-.7,1s-.5.4-.7.6-.4.2-.5.2h0c.2,0,.4.1.6.2.2,0,.4.3.6.5.2.2.4.5.5.8s.2.8.2,1.3c0,.8,0,1.5.2,2.1.1.6.3,1.1.6,1.4h-2.5c-.2-.3-.3-.6-.3-.9s0-.7,0-1c0-.6,0-1.1-.1-1.6s-.2-.8-.4-1.1c-.2-.3-.5-.5-.8-.6s-.8-.2-1.3-.2h-3.5v5.4h-2.3v-13.2h0ZM122.4,73.8h3.9c.8,0,1.3-.2,1.7-.5s.6-.9.6-1.6,0-.8-.2-1c-.1-.3-.3-.5-.5-.6-.2-.2-.5-.2-.8-.3s-.6,0-.9,0h-3.8v4.1h0Z"/>
          <path class="st1" d="M145.1,67.8h2.5l5.2,13.2h-2.5l-1.3-3.5h-5.4l-1.3,3.5h-2.4l5.2-13.2h0ZM144.3,75.8h4.1l-2-5.7h0l-2,5.7h0Z"/>
          <path class="st1" d="M162.3,67.8h2.5l6.1,9.8h0v-9.8h2.2v13.2h-2.5l-6.1-9.7h0v9.7h-2.2v-13.2Z"/>
          <path class="st1" d="M184.2,67.8h5.6c1,0,1.9.2,2.7.5s1.4.8,1.8,1.4c.5.6.8,1.3,1.1,2.1s.4,1.7.4,2.6-.1,1.8-.4,2.6-.6,1.5-1.1,2.1c-.5.6-1.1,1.1-1.8,1.4s-1.6.5-2.7.5h-5.6v-13.2h0ZM186.6,79.1h2.3c.9,0,1.7-.1,2.2-.4s1-.6,1.4-1,.6-.9.7-1.5c.1-.6.2-1.2.2-1.9s0-1.3-.2-1.9-.3-1.1-.7-1.5c-.3-.4-.8-.8-1.4-1s-1.3-.4-2.2-.4h-2.3v9.4h0Z"/>
          <path class="st1" d="M204.8,67.8h2.4l2.4,10.1h0l2.7-10.1h2.4l2.6,10.1h0l2.5-10.1h2.4l-3.7,13.2h-2.4l-2.7-10.1h0l-2.8,10.1h-2.4l-3.5-13.2h0Z"/>
          <path class="st1" d="M237.9,67.5c1,0,1.9.2,2.7.6.8.4,1.5.9,2,1.5s1,1.4,1.3,2.2.4,1.7.4,2.7-.1,1.8-.4,2.7-.7,1.6-1.3,2.2c-.6.6-1.2,1.1-2,1.5-.8.4-1.7.6-2.7.6s-1.9-.2-2.7-.6c-.8-.4-1.5-.9-2-1.5s-1-1.4-1.3-2.2-.4-1.7-.4-2.7.1-1.8.4-2.7.7-1.6,1.3-2.2,1.2-1.1,2-1.5c.8-.4,1.7-.6,2.7-.6ZM237.9,69.4c-.7,0-1.3.1-1.9.4s-.9.7-1.3,1.1c-.3.5-.6,1-.7,1.6-.2.6-.2,1.2-.2,1.8s0,1.2.2,1.8c.2.6.4,1.2.7,1.6s.8.9,1.3,1.1,1.1.4,1.9.4,1.3-.1,1.9-.4.9-.7,1.3-1.1.6-1,.7-1.6c.2-.6.2-1.2.2-1.8s0-1.2-.2-1.8c-.2-.6-.4-1.2-.7-1.6-.3-.5-.8-.8-1.3-1.1s-1.1-.4-1.9-.4Z"/>
          <path class="st1" d="M254.7,67.8h6.4c1.5,0,2.6.3,3.3.9.7.6,1.1,1.5,1.1,2.6s0,1.2-.3,1.6c-.2.4-.4.8-.7,1s-.5.4-.7.6-.4.2-.5.2h0c.2,0,.4.1.6.2.2,0,.5.3.6.5.2.2.4.5.5.8s.2.8.2,1.3c0,.8,0,1.5.2,2.1.1.6.3,1.1.6,1.4h-2.5c-.2-.3-.3-.6-.3-.9s0-.7,0-1c0-.6,0-1.1-.1-1.6s-.2-.8-.4-1.1c-.2-.3-.5-.5-.8-.6s-.8-.2-1.3-.2h-3.5v5.4h-2.4v-13.2h0ZM257.1,73.8h3.9c.8,0,1.3-.2,1.7-.5.4-.3.6-.9.6-1.6s0-.8-.2-1c-.1-.3-.3-.5-.5-.6s-.5-.2-.8-.3-.6,0-.9,0h-3.8v4.1h0Z"/>
          <path class="st1" d="M276.2,67.8h2.4v6l6-6h2.9l-5.4,5.3,5.7,7.9h-2.9l-4.4-6.3-1.9,1.9v4.4h-2.4s0-13.2,0-13.2Z"/>
          <path class="st1" d="M298.9,76.6c0,.5,0,.9.3,1.3s.4.7.7.9.7.4,1.1.5c.4.1.9.2,1.3.2s1,0,1.3-.2c.4-.1.7-.3.9-.4.2-.2.4-.4.5-.6.1-.2.1-.5.1-.7,0-.5-.1-.9-.4-1.1-.2-.2-.5-.4-.8-.5-.5-.2-1-.3-1.7-.5-.6-.2-1.4-.3-2.3-.6-.6-.2-1.1-.3-1.4-.6-.4-.2-.7-.5-.9-.8-.2-.3-.4-.6-.5-.9s-.1-.7-.1-1c0-.7.1-1.2.4-1.7.3-.5.7-.9,1.1-1.2s1-.6,1.6-.7,1.2-.2,1.8-.2,1.4,0,2,.3c.6.2,1.2.4,1.6.8s.8.8,1.1,1.3c.3.5.4,1.1.4,1.8h-2.4c0-.8-.4-1.5-.9-1.8s-1.2-.5-2-.5-.6,0-.9,0c-.3,0-.5.2-.8.3s-.4.3-.6.5-.2.5-.2.8c0,.5.1.8.4,1.1s.7.5,1.2.6c0,0,.2,0,.6.2.3,0,.7.2,1.2.3s.8.2,1.2.3.7.2.9.2c.4.1.8.3,1.1.6s.6.5.8.8c.2.3.4.6.5,1,.1.3.2.7.2,1,0,.7-.1,1.4-.5,1.9s-.7.9-1.2,1.3c-.5.3-1.1.6-1.7.7s-1.3.2-2,.2-1.5,0-2.2-.3c-.7-.2-1.3-.5-1.8-.8s-.9-.9-1.2-1.5c-.3-.6-.5-1.3-.5-2.1h2.4Z"/>
        </g>
      </g>
      <g>
        <path class="st0" d="M78.2,35.8l-16.3-3.9-4.7-1.1c-.1,0-.2,0-.3,0-2.4-.7-4.3-2.6-5-5l-1.3.8c-1,.6-2,1.1-3.1,1.5,1.2,3.3,3.8,5.9,7.1,7.1.5.2,1,.3,1.5.5l3.3.8,17.7,4.2c.4,0,.6.4.6.8s-.2.7-.6.8l-17.7,4.2c.2.6.6,1.2.9,1.8l1.6,2.6,16.3-3.9c2.6-.6,4.4-2.8,4.4-5.5s-1.8-4.9-4.4-5.5h0ZM46.8,4.4c-.6-2.6-2.8-4.4-5.5-4.4s-4.9,1.8-5.5,4.4l-3.9,16.3-1.1,4.7c0,.1,0,.2,0,.3-.7,2.4-2.6,4.3-5,5l.8,1.3c.6,1,1.1,2,1.5,3.1,3.3-1.2,5.9-3.8,7.1-7.1.2-.5.3-1,.5-1.5l.8-3.3,4.2-17.6c0-.4.4-.6.8-.6s.7.2.8.6l4.2,17.6c.6-.3,1.2-.6,1.8-.9l2.6-1.6-3.9-16.3h0ZM27.9,47.5c-.5-.2-1-.3-1.5-.5l-3.3-.8-17.6-4.2c-.4,0-.6-.4-.6-.8s.2-.7.6-.8l17.6-4.2c-.2-.6-.6-1.2-.9-1.8l-1.6-2.6-16.3,3.9c-2.6.6-4.4,2.8-4.4,5.5s1.8,4.9,4.4,5.5l16.3,3.9,4.7,1.1c.1,0,.2,0,.3,0,2.4.7,4.3,2.6,5,5l1.3-.8c1-.6,2-1.1,3.1-1.5-1.2-3.3-3.8-5.9-7.1-7.1h0ZM56.2,50.7c-.6-1-1.1-2-1.5-3.1-3.3,1.2-5.9,3.8-7.1,7.1-.2.5-.3,1-.5,1.5l-.8,3.3-4.2,17.6c0,.4-.4.6-.8.6s-.7-.2-.8-.6l-4.2-17.7c-.6.3-1.2.6-1.8.9l-2.6,1.6,3.9,16.3c.6,2.6,2.8,4.4,5.5,4.4s4.9-1.8,5.5-4.4l3.9-16.3,1.1-4.7c0-.1,0-.2,0-.3.7-2.4,2.6-4.3,5-5l-.8-1.3h0Z"/>
        <g>
          <path class="st0" d="M36.1,18.9l-1.2,5c-.3-.2-.7-.4-1-.6L9.4,8.3c-.4-.2-.7-.2-1,.1-.3.3-.3.6-.1,1l15,24.5c.2.3.4.7.6,1,.8,1.5,1.2,3.1,1.4,4.7.1,1.2.1,2.3,0,3.5l-4.8-1.2c0-.4,0-.8,0-1.2,0-1.5-.5-3-1.4-4.3l-.2-.4L4.1,11.9c-1.4-2.3-1.1-5.1.8-7s4.7-2.2,7-.8l24.1,14.8h0Z"/>
          <path class="st0" d="M43,57.3l-1.2,4.8c-.4,0-.8,0-1.2,0-1.5,0-3,.5-4.3,1.4l-.4.2-24.1,14.8c-2.3,1.4-5.1,1.1-7-.8s-2.2-4.7-.8-7l14.8-24.1,5,1.2c-.2.3-.4.7-.6,1l-15,24.5c-.2.3-.2.7.1,1,.3.3.6.3,1,.1l24.5-15c.3-.2.7-.4,1-.6,1.5-.8,3.1-1.2,4.7-1.4.6,0,1.2-.1,1.7-.1s1.2,0,1.7.1h0Z"/>
          <path class="st0" d="M77.7,77.6c-1.1,1.1-2.6,1.7-4,1.7s-2.1-.3-3-.9l-24.1-14.8,1.2-5c.3.2.7.4,1,.6l24.5,15c.3.2.7.2,1-.1s.3-.6.1-1l-15-24.5c-.2-.3-.4-.7-.6-1-.8-1.5-1.2-3.1-1.4-4.7-.2-1.2-.2-2.3,0-3.5l4.8,1.2c0,.4,0,.8,0,1.2,0,1.5.5,3,1.4,4.3l.2.4,14.8,24.1c1.4,2.3,1.1,5.1-.8,7h0Z"/>
          <path class="st0" d="M78.5,11.9l-14.8,24.1-5-1.2c.2-.3.4-.7.6-1l15-24.5c.2-.4.2-.7-.1-1s-.6-.3-1-.1l-24.5,15c-.3.2-.7.4-1,.6-1.5.8-3.1,1.2-4.7,1.4-1.2.1-2.3.1-3.5,0l1.2-4.8c.4,0,.8,0,1.2,0,1.5,0,3-.5,4.3-1.4l.4-.2,24.1-14.8c2.3-1.4,5.1-1.1,7,.8s2.2,4.7.8,7h0Z"/>
        </g>
      </g>
    </g>
  </g>
</svg>