<?xml version="1.0" encoding="UTF-8"?>
<svg id="Layer_2" data-name="Layer 2" xmlns="http://www.w3.org/2000/svg" viewBox="0 0 308.92 86.34">
  <defs>
    <style>
      .cls-1 {
        fill: #f15a29;
      }

      .cls-2 {
        font-family: HelveticaNeue-Medium, 'Helvetica Neue';
        font-size: 18.53px;
        font-weight: 500;
        letter-spacing: .44em;
      }

      .cls-2, .cls-3 {
        fill: #fff;
      }

      .cls-3 {
        font-family: Unbounded-Black, Unbounded;
        font-size: 51.78px;
        font-variation-settings: 'wght' 900;
        font-weight: 800;
      }

      .cls-4 {
        letter-spacing: 0em;
      }

      .cls-5 {
        letter-spacing: -.08em;
      }

      .cls-6 {
        letter-spacing: -.04em;
      }

      .cls-7 {
        letter-spacing: 0em;
      }
    </style>
  </defs>
  <g id="Layer_1-2" data-name="Layer 1">
    <g>
      <g>
        <text class="cls-3" transform="translate(94.92 60.7)"><tspan x="0" y="0">L</tspan><tspan class="cls-7" x="40.44" y="0">E</tspan><tspan class="cls-4" x="82.22" y="0">T</tspan><tspan class="cls-6" x="125.72" y="0">U</tspan><tspan class="cls-5" x="169.78" y="0">S</tspan></text>
        <text class="cls-2" transform="translate(97.04 81.02) scale(1.02 1)"><tspan x="0" y="0">BRANDWORKS</tspan></text>
      </g>
      <g>
        <path class="cls-1" d="M78.2,35.75l-16.26-3.9-4.67-1.12c-.11-.02-.21-.06-.32-.09-2.44-.69-4.33-2.58-5.02-5.02l-1.28.79c-.99.61-2.03,1.11-3.11,1.51,1.24,3.29,3.81,5.87,7.1,7.11.48.18.98.34,1.49.46l3.29.79,17.65,4.23c.4.1.61.36.61.78s-.21.68-.61.78l-17.65,4.23c.25.62.56,1.22.92,1.8l1.61,2.63,16.26-3.9c2.61-.63,4.37-2.85,4.37-5.54s-1.76-4.91-4.37-5.54ZM46.82,4.37c-.63-2.61-2.85-4.37-5.54-4.37s-4.91,1.76-5.54,4.37l-3.9,16.26-1.12,4.68c-.02.11-.06.21-.09.32-.69,2.44-2.58,4.33-5.02,5.02l.79,1.28c.61,1,1.12,2.04,1.52,3.11,3.29-1.24,5.87-3.82,7.1-7.11.18-.48.34-.97.46-1.48l.79-3.29,4.23-17.65c.1-.4.36-.61.78-.61s.68.21.78.61l4.23,17.65c.62-.26,1.22-.56,1.8-.92l2.63-1.62-3.9-16.26ZM27.93,47.54c-.48-.18-.98-.34-1.49-.46l-3.29-.79-17.65-4.23c-.4-.1-.61-.36-.61-.78s.21-.68.61-.78l17.65-4.23c-.25-.62-.56-1.22-.92-1.8l-1.62-2.63-16.26,3.9c-2.61.63-4.37,2.85-4.37,5.54s1.76,4.91,4.37,5.54l16.26,3.9,4.68,1.12c.11.02.21.06.32.09,2.44.69,4.33,2.58,5.02,5.02l1.28-.79c.99-.61,2.03-1.11,3.11-1.51-1.24-3.29-3.81-5.87-7.1-7.11ZM56.16,50.65c-.61-1-1.12-2.04-1.52-3.11-3.29,1.24-5.87,3.82-7.1,7.11-.18.48-.34.97-.46,1.48l-.79,3.29-4.23,17.65c-.1.4-.36.61-.78.61s-.68-.21-.78-.61l-4.23-17.65c-.62.26-1.22.56-1.8.92l-2.63,1.62,3.9,16.26c.63,2.61,2.85,4.37,5.54,4.37s4.91-1.76,5.54-4.37l3.9-16.26,1.12-4.68c.02-.11.06-.21.09-.32.69-2.44,2.58-4.33,5.02-5.02l-.79-1.28Z"/>
        <g>
          <path class="cls-1" d="M36.04,18.89l-1.19,4.96c-.34-.17-.68-.36-1.01-.56L9.37,8.28c-.35-.21-.69-.18-.98.12-.29.29-.33.62-.12.98l15.01,24.47c.2.33.39.67.56,1.01.76,1.49,1.24,3.08,1.44,4.69.15,1.16.15,2.33,0,3.49l-4.82-1.16c.03-.39.03-.78,0-1.17-.09-1.49-.54-2.97-1.36-4.29l-.22-.36L4.11,11.93c-1.4-2.29-1.07-5.1.83-7,1.9-1.9,4.71-2.23,7-.83l24.11,14.79Z"/>
          <path class="cls-1" d="M43.03,57.28l-1.16,4.82c-.39-.04-.78-.04-1.17,0-1.49.09-2.97.54-4.29,1.36l-.36.22-24.11,14.79c-2.29,1.4-5.1,1.07-7-.83-1.9-1.9-2.23-4.71-.83-7l14.79-24.11,4.96,1.19c-.17.34-.36.68-.56,1.01l-15.01,24.47c-.21.35-.18.69.12.98.29.29.62.33.98.12l24.47-15.01c.33-.2.67-.39,1.01-.56,1.49-.76,3.07-1.24,4.69-1.44.58-.07,1.16-.11,1.74-.11s1.16.04,1.74.11Z"/>
          <path class="cls-1" d="M77.64,77.64c-1.12,1.11-2.55,1.69-4,1.69-1.02,0-2.06-.29-3-.86l-24.11-14.79,1.19-4.96c.34.17.68.36,1.01.56l24.47,15.01c.35.21.69.18.98-.12s.33-.62.12-.98l-15.01-24.47c-.2-.33-.39-.67-.56-1.01-.76-1.49-1.24-3.08-1.44-4.69-.15-1.16-.15-2.33,0-3.49l4.82,1.16c-.04.39-.04.78,0,1.17.09,1.49.54,2.97,1.36,4.29l.22.36,14.79,24.11c1.4,2.29,1.07,5.1-.83,7Z"/>
          <path class="cls-1" d="M78.47,11.93l-14.79,24.11-4.96-1.19c.17-.34.36-.68.56-1.01l15.01-24.47c.21-.35.18-.69-.12-.98s-.62-.33-.98-.12l-24.47,15.01c-.33.2-.67.39-1.01.56-1.49.76-3.08,1.24-4.69,1.44-1.16.15-2.33.15-3.49,0l1.16-4.82c.39.04.78.04,1.17,0,1.49-.09,2.97-.54,4.29-1.36l.36-.22,24.11-14.79c2.29-1.4,5.1-1.07,7,.83,1.9,1.9,2.23,4.71.83,7Z"/>
        </g>
      </g>
    </g>
  </g>
</svg>