<?xml version="1.0" encoding="UTF-8"?>
<svg id="Layer_2" data-name="Layer 2" xmlns="http://www.w3.org/2000/svg" viewBox="0 0 308.15 82.57">
  <defs>
    <style>
      .cls-1 {
        fill: #f15a29;
      }

      .cls-2 {
        fill: #3b3b3c;
      }
    </style>
  </defs>
  <g id="Layer_1-2" data-name="Layer 1">
    <g>
      <g>
        <g>
          <path class="cls-2" d="M111.39,21.87v32.93l-6.01-6.01h28.89v11.91h-36.25V21.87h13.36Z"/>
          <path class="cls-2" d="M153.02,41.29l-2.38,14.45-5.07-5.59h29.46v10.56h-37.59l2.85-19.42-2.85-19.42h37.33v10.56h-29.2l5.07-5.59,2.38,14.45ZM173.11,36.68v9.22h-29.25v-9.22h29.25Z"/>
          <path class="cls-2" d="M178.23,21.87h41.32v11.91h-41.32v-11.91ZM192.21,27.62h13.36v33.09h-13.36V27.62Z"/>
          <path class="cls-2" d="M236.59,42.89c0,1.42.25,2.63.75,3.65.5,1.02,1.27,1.8,2.3,2.36,1.04.55,2.36.83,3.99.83s3-.27,4.04-.8c1.04-.54,1.79-1.32,2.28-2.36s.73-2.26.73-3.68v-21.02h13.36v21.75c0,3.62-.85,6.78-2.54,9.48s-4.06,4.79-7.12,6.29c-3.06,1.5-6.64,2.25-10.74,2.25s-7.64-.75-10.69-2.25c-3.06-1.5-5.44-3.6-7.15-6.29-1.71-2.69-2.56-5.85-2.56-9.48v-21.75h13.36v21.02Z"/>
          <path class="cls-2" d="M266.52,47.91h13.57c.14.76.54,1.41,1.19,1.94.66.54,1.55.95,2.69,1.24,1.14.29,2.5.44,4.09.44,2.07,0,3.68-.21,4.84-.62s1.74-1.09,1.74-2.02c0-.62-.33-1.15-.98-1.58-.66-.43-2-.72-4.04-.85l-6.42-.41c-5.83-.38-10.04-1.62-12.63-3.73-2.59-2.1-3.88-4.88-3.88-8.34,0-2.9.83-5.32,2.49-7.25,1.66-1.93,3.98-3.38,6.96-4.35,2.99-.97,6.48-1.45,10.49-1.45s7.36.54,10.38,1.63c3.02,1.09,5.42,2.62,7.2,4.58,1.78,1.97,2.75,4.26,2.93,6.89h-13.57c-.1-.62-.44-1.16-1.01-1.61-.57-.45-1.37-.79-2.41-1.04-1.04-.24-2.3-.36-3.78-.36-1.9,0-3.39.19-4.48.57-1.09.38-1.63,1-1.63,1.86,0,.59.32,1.09.96,1.5s1.87.69,3.7.83l7.25.47c3.8.24,6.87.8,9.22,1.68s4.07,2.1,5.15,3.65c1.09,1.55,1.63,3.47,1.63,5.75,0,2.87-.85,5.37-2.54,7.51s-4.06,3.81-7.12,5c-3.06,1.19-6.62,1.79-10.69,1.79s-7.91-.57-11.08-1.71c-3.18-1.14-5.65-2.74-7.43-4.82s-2.7-4.47-2.77-7.2Z"/>
        </g>
        <g>
          <path class="cls-2" d="M98.47,67.79h6.53c1.2,0,2.17.27,2.9.81.73.54,1.09,1.37,1.09,2.46,0,.67-.17,1.24-.5,1.71s-.81.84-1.42,1.1v.04c.83.17,1.46.56,1.88,1.16.43.6.64,1.35.64,2.25,0,.52-.09,1-.28,1.46s-.48.84-.88,1.17c-.4.33-.92.59-1.54.78-.63.19-1.37.29-2.24.29h-6.17v-13.23ZM100.82,73.33h3.84c.56,0,1.04-.16,1.41-.47.38-.32.56-.77.56-1.36,0-.67-.17-1.14-.51-1.41-.34-.27-.83-.41-1.47-.41h-3.84v3.65ZM100.82,79.13h4.16c.71,0,1.27-.18,1.67-.55.39-.36.59-.88.59-1.55s-.2-1.16-.59-1.51c-.4-.35-.95-.53-1.67-.53h-4.16v4.13Z"/>
          <path class="cls-2" d="M119.99,67.79h6.42c1.48,0,2.59.31,3.33.94.74.63,1.11,1.51,1.11,2.63,0,.63-.09,1.15-.28,1.57-.19.41-.41.75-.66,1s-.5.44-.74.55c-.24.11-.42.18-.54.22v.04c.2.03.42.09.65.19.23.1.45.26.65.47.2.22.37.5.5.84s.2.78.2,1.3c0,.78.06,1.49.18,2.12.12.64.3,1.09.56,1.36h-2.52c-.18-.28-.28-.6-.31-.95-.03-.35-.05-.68-.05-1,0-.61-.04-1.13-.11-1.57s-.21-.8-.41-1.09c-.2-.29-.47-.5-.82-.64s-.79-.2-1.33-.2h-3.46v5.45h-2.35v-13.23ZM122.35,73.81h3.86c.75,0,1.32-.18,1.71-.53.39-.35.58-.88.58-1.58,0-.42-.06-.76-.19-1.03-.12-.27-.3-.47-.52-.62-.22-.15-.47-.25-.75-.3-.28-.05-.57-.07-.88-.07h-3.82v4.13Z"/>
          <path class="cls-2" d="M145.11,67.79h2.5l5.17,13.23h-2.52l-1.26-3.5h-5.36l-1.26,3.5h-2.43l5.16-13.23ZM144.28,75.76h4.1l-2.01-5.69h-.06l-2.03,5.69Z"/>
          <path class="cls-2" d="M162.25,67.79h2.48l6.13,9.75h.04v-9.75h2.24v13.23h-2.48l-6.11-9.73h-.06v9.73h-2.24v-13.23Z"/>
          <path class="cls-2" d="M184.21,67.79h5.57c1.03,0,1.92.17,2.67.52.75.35,1.37.82,1.84,1.42.48.6.83,1.3,1.06,2.1s.35,1.66.35,2.58-.12,1.77-.35,2.58-.59,1.5-1.06,2.1c-.48.6-1.09,1.07-1.84,1.42-.75.35-1.64.52-2.67.52h-5.57v-13.23ZM186.56,79.13h2.31c.92,0,1.67-.12,2.25-.36.58-.24,1.04-.57,1.37-1,.33-.43.56-.93.68-1.5.12-.58.18-1.2.18-1.86s-.06-1.29-.18-1.86-.34-1.07-.68-1.5c-.33-.43-.79-.76-1.37-1-.58-.24-1.33-.36-2.25-.36h-2.31v9.45Z"/>
          <path class="cls-2" d="M204.76,67.79h2.39l2.43,10.12h.04l2.71-10.12h2.41l2.63,10.12h.04l2.5-10.12h2.39l-3.71,13.23h-2.39l-2.69-10.12h-.04l-2.75,10.12h-2.43l-3.54-13.23Z"/>
          <path class="cls-2" d="M237.83,67.48c1,0,1.9.19,2.7.56.8.37,1.47.87,2.02,1.5.55.63.97,1.37,1.27,2.21s.44,1.73.44,2.67-.15,1.85-.44,2.69-.72,1.57-1.27,2.21c-.55.63-1.23,1.13-2.02,1.49-.8.36-1.7.55-2.7.55s-1.9-.18-2.7-.55c-.8-.36-1.47-.86-2.02-1.49-.55-.63-.97-1.37-1.27-2.21s-.44-1.74-.44-2.69.15-1.83.44-2.67.72-1.58,1.27-2.21c.55-.63,1.23-1.13,2.02-1.5.8-.37,1.7-.56,2.7-.56ZM237.83,69.37c-.72,0-1.33.14-1.85.43s-.94.66-1.27,1.14c-.33.48-.57,1.02-.72,1.62-.16.6-.23,1.22-.23,1.85s.08,1.25.23,1.85c.16.61.4,1.15.72,1.62s.75.86,1.27,1.14,1.14.43,1.85.43,1.33-.14,1.85-.43.94-.66,1.27-1.14.57-1.02.72-1.62c.16-.61.23-1.22.23-1.85s-.08-1.25-.23-1.85c-.16-.61-.4-1.15-.72-1.62-.33-.47-.75-.85-1.27-1.14s-1.14-.43-1.85-.43Z"/>
          <path class="cls-2" d="M254.69,67.79h6.42c1.48,0,2.59.31,3.33.94.74.63,1.11,1.51,1.11,2.63,0,.63-.09,1.15-.28,1.57-.19.41-.41.75-.66,1s-.5.44-.74.55c-.24.11-.42.18-.54.22v.04c.2.03.42.09.65.19.23.1.45.26.65.47.2.22.37.5.5.84s.2.78.2,1.3c0,.78.06,1.49.18,2.12.12.64.3,1.09.56,1.36h-2.52c-.18-.28-.28-.6-.31-.95-.03-.35-.05-.68-.05-1,0-.61-.04-1.13-.11-1.57s-.21-.8-.41-1.09c-.2-.29-.47-.5-.82-.64s-.79-.2-1.33-.2h-3.46v5.45h-2.35v-13.23ZM257.05,73.81h3.86c.75,0,1.32-.18,1.71-.53.39-.35.58-.88.58-1.58,0-.42-.06-.76-.19-1.03-.12-.27-.3-.47-.52-.62-.22-.15-.47-.25-.75-.3-.28-.05-.57-.07-.88-.07h-3.82v4.13Z"/>
          <path class="cls-2" d="M276.22,67.79h2.35v6.02l5.98-6.02h2.9l-5.36,5.28,5.74,7.95h-2.94l-4.4-6.32-1.92,1.87v4.45h-2.35v-13.23Z"/>
          <path class="cls-2" d="M298.93,76.61c0,.51.09.94.26,1.3s.42.65.73.88.67.4,1.08.5c.41.11.85.16,1.33.16.51,0,.95-.06,1.32-.18.36-.12.66-.27.88-.45.23-.18.39-.4.49-.64.1-.24.15-.49.15-.73,0-.51-.12-.88-.35-1.12-.23-.24-.49-.41-.76-.51-.48-.17-1.03-.34-1.67-.49-.63-.15-1.41-.35-2.34-.6-.58-.15-1.06-.34-1.44-.58-.38-.24-.69-.51-.91-.81-.23-.3-.39-.61-.48-.94-.09-.33-.14-.67-.14-1.02,0-.67.14-1.24.42-1.73.28-.49.66-.89,1.12-1.21s.99-.56,1.58-.71c.59-.15,1.19-.23,1.79-.23.7,0,1.36.09,1.98.27.62.18,1.17.45,1.64.81.47.36.84.8,1.12,1.32.28.53.41,1.13.41,1.83h-2.35c-.06-.85-.36-1.46-.88-1.81s-1.2-.53-2.01-.53c-.28,0-.56.03-.85.08-.29.06-.55.15-.79.28s-.44.31-.59.53-.24.5-.24.83c0,.47.15.84.44,1.1s.68.47,1.16.6c.05.01.25.07.59.16.34.09.73.2,1.16.31.43.11.84.22,1.25.32.41.1.7.18.88.23.44.14.82.32,1.15.56s.6.5.82.81c.22.3.38.63.49.97.11.35.16.69.16,1.04,0,.74-.15,1.37-.46,1.9-.31.53-.71.95-1.21,1.29-.5.33-1.07.58-1.71.73s-1.29.23-1.96.23c-.76,0-1.49-.09-2.16-.28-.68-.19-1.27-.47-1.77-.85-.5-.38-.9-.87-1.21-1.47-.3-.6-.46-1.31-.47-2.12h2.35Z"/>
        </g>
      </g>
      <g>
        <path class="cls-1" d="M78.2,35.75l-16.26-3.9-4.67-1.12c-.11-.02-.21-.06-.32-.09-2.44-.69-4.33-2.58-5.02-5.02l-1.28.79c-.99.61-2.03,1.11-3.11,1.51,1.24,3.29,3.81,5.87,7.1,7.11.48.18.98.34,1.49.46l3.29.79,17.65,4.23c.4.1.61.36.61.78s-.21.68-.61.78l-17.65,4.23c.25.62.56,1.22.92,1.8l1.61,2.63,16.26-3.9c2.61-.63,4.37-2.85,4.37-5.54s-1.76-4.91-4.37-5.54ZM46.82,4.37c-.63-2.61-2.85-4.37-5.54-4.37s-4.91,1.76-5.54,4.37l-3.9,16.26-1.12,4.68c-.02.11-.06.21-.09.32-.69,2.44-2.58,4.33-5.02,5.02l.79,1.28c.61,1,1.12,2.04,1.52,3.11,3.29-1.24,5.87-3.82,7.1-7.11.18-.48.34-.97.46-1.48l.79-3.29,4.23-17.65c.1-.4.36-.61.78-.61s.68.21.78.61l4.23,17.65c.62-.26,1.22-.56,1.8-.92l2.63-1.62-3.9-16.26ZM27.93,47.54c-.48-.18-.98-.34-1.49-.46l-3.29-.79-17.65-4.23c-.4-.1-.61-.36-.61-.78s.21-.68.61-.78l17.65-4.23c-.25-.62-.56-1.22-.92-1.8l-1.62-2.63-16.26,3.9c-2.61.63-4.37,2.85-4.37,5.54s1.76,4.91,4.37,5.54l16.26,3.9,4.68,1.12c.11.02.21.06.32.09,2.44.69,4.33,2.58,5.02,5.02l1.28-.79c.99-.61,2.03-1.11,3.11-1.51-1.24-3.29-3.81-5.87-7.1-7.11ZM56.16,50.65c-.61-1-1.12-2.04-1.52-3.11-3.29,1.24-5.87,3.82-7.1,7.11-.18.48-.34.97-.46,1.48l-.79,3.29-4.23,17.65c-.1.4-.36.61-.78.61s-.68-.21-.78-.61l-4.23-17.65c-.62.26-1.22.56-1.8.92l-2.63,1.62,3.9,16.26c.63,2.61,2.85,4.37,5.54,4.37s4.91-1.76,5.54-4.37l3.9-16.26,1.12-4.68c.02-.11.06-.21.09-.32.69-2.44,2.58-4.33,5.02-5.02l-.79-1.28Z"/>
        <g>
          <path class="cls-1" d="M36.04,18.89l-1.19,4.96c-.34-.17-.68-.36-1.01-.56L9.37,8.28c-.35-.21-.69-.18-.98.12-.29.29-.33.62-.12.98l15.01,24.47c.2.33.39.67.56,1.01.76,1.49,1.24,3.08,1.44,4.69.15,1.16.15,2.33,0,3.49l-4.82-1.16c.03-.39.03-.78,0-1.17-.09-1.49-.54-2.97-1.36-4.29l-.22-.36L4.11,11.93c-1.4-2.29-1.07-5.1.83-7,1.9-1.9,4.71-2.23,7-.83l24.11,14.79Z"/>
          <path class="cls-1" d="M43.03,57.28l-1.16,4.82c-.39-.04-.78-.04-1.17,0-1.49.09-2.97.54-4.29,1.36l-.36.22-24.11,14.79c-2.29,1.4-5.1,1.07-7-.83-1.9-1.9-2.23-4.71-.83-7l14.79-24.11,4.96,1.19c-.17.34-.36.68-.56,1.01l-15.01,24.47c-.21.35-.18.69.12.98.29.29.62.33.98.12l24.47-15.01c.33-.2.67-.39,1.01-.56,1.49-.76,3.07-1.24,4.69-1.44.58-.07,1.16-.11,1.74-.11s1.16.04,1.74.11Z"/>
          <path class="cls-1" d="M77.64,77.64c-1.12,1.11-2.55,1.69-4,1.69-1.02,0-2.06-.29-3-.86l-24.11-14.79,1.19-4.96c.34.17.68.36,1.01.56l24.47,15.01c.35.21.69.18.98-.12s.33-.62.12-.98l-15.01-24.47c-.2-.33-.39-.67-.56-1.01-.76-1.49-1.24-3.08-1.44-4.69-.15-1.16-.15-2.33,0-3.49l4.82,1.16c-.04.39-.04.78,0,1.17.09,1.49.54,2.97,1.36,4.29l.22.36,14.79,24.11c1.4,2.29,1.07,5.1-.83,7Z"/>
          <path class="cls-1" d="M78.47,11.93l-14.79,24.11-4.96-1.19c.17-.34.36-.68.56-1.01l15.01-24.47c.21-.35.18-.69-.12-.98s-.62-.33-.98-.12l-24.47,15.01c-.33.2-.67.39-1.01.56-1.49.76-3.08,1.24-4.69,1.44-1.16.15-2.33.15-3.49,0l1.16-4.82c.39.04.78.04,1.17,0,1.49-.09,2.97-.54,4.29-1.36l.36-.22,24.11-14.79c2.29-1.4,5.1-1.07,7,.83,1.9,1.9,2.23,4.71.83,7Z"/>
        </g>
      </g>
    </g>
  </g>
</svg>