<?xml version="1.0" encoding="UTF-8"?>
<svg id="Layer_2" xmlns="http://www.w3.org/2000/svg" version="1.1" viewBox="0 0 612.7 206.2">
  <!-- Generator: Adobe Illustrator 29.8.1, SVG Export Plug-In . SVG Version: 2.1.1 Build 2)  -->
  <defs>
    <style>
      .st0 {
        fill: gray;
      }
    </style>
  </defs>
  <g id="Layer_1-2">
    <g>
      <g>
        <polygon class="st0" points="431 141.6 431 65.9 420.9 65.9 420.9 119 369.4 65.9 367 65.9 367 141.6 377.2 141.6 377.2 88.1 428.9 141.6 431 141.6"/>
        <path class="st0" d="M594.4,127.3l6.7,14.3h11.6l-37.2-75.7h-2.4l-37.2,75.7h11.5l6.7-14.2h40.3ZM574.4,84.9l15.7,33.8h-31.7l15.9-33.8h0Z"/>
        <path class="st0" d="M523.4,102.2c0-21.2-16.7-37.7-38-37.7s-38,17.3-38,38.6,3.4,20.5,9.8,27.2c7.1,7.4,17.7,11.3,30.6,11.3h37.1v-9.1h-16.7l1.1-.7c6.5-4.1,14.1-14.4,14.1-29.7h0ZM485.4,131.9c-15.1,0-27.8-13.2-27.8-28.7s12.7-28.8,27.8-28.8,27.7,13.2,27.7,28.8-11.9,28.7-27.7,28.7Z"/>
        <path class="st0" d="M280.3,65.9l-37.2,75.7h11.5l6.7-14.2h40.3l6.7,14.2h11.6l-37.2-75.7h-2.4,0ZM265.7,118.6l15.9-33.8,15.7,33.8h-31.7Z"/>
        <rect class="st0" x="335.7" y="65.9" width="10.2" height="75.7"/>
      </g>
      <path class="st0" d="M103.1,0C46.2,0,0,46.2,0,103.1s46.2,103.1,103.1,103.1,103.1-46.2,103.1-103.1S159.9,0,103.1,0ZM103.2,5.9h.9l.2.4,35.4,64-1.9-.8c-10.5-4.3-22.3-6.5-34-6.5s-23.7,2.3-34.5,6.6l-1.9.8L103.2,5.9ZM152,95.3c-14.1-7.4-32.8-12.1-48.6-12.1s-34.2,4.6-48.5,12.2l-2.2,1.2,10.5-18.9h.2c13.2-5.7,27.3-8.7,39.6-8.7s27.4,3.3,40.5,8.7h.2c0,0,10.3,18.7,10.3,18.7l-2.2-1.2h0ZM158.8,105h.2c0,0,14.9,27,14.9,27l-3.3-3.1c-17.1-15.8-43.1-25.5-67.8-25.5s-47.1,9.1-66,24.9l-3.1,2.6,14.3-25.8h.2c16.6-9.9,37.3-15.8,55.2-15.8h.2c18.5,0,39.6,6,55.3,15.7h0ZM16.5,147.2c-7-13.8-10.6-28.6-10.6-44.1,0-24.5,9.2-47.9,25.8-65.9,16.6-17.9,39-28.9,63.2-30.9h1.4c0-.1-79.1,142.2-79.1,142.2l-.6-1.2ZM185.5,154.5c-17.9,28.6-48.8,45.8-82.4,45.8s-64.3-17-82.3-45.5l-.2-.4,1.2-2.1c18.7-26.6,49.8-43,81.1-43s66.4,18.3,82.7,44.5l.2.4-.2.4h0ZM189.9,146.6l-.6,1.2L111,6.2h1.4c23.9,2.4,46.1,13.5,62.4,31.3,16.4,18,25.5,41.2,25.5,65.5s-3.5,29.9-10.3,43.6h0Z"/>
    </g>
  </g>
</svg>