<?xml version="1.0" encoding="UTF-8"?>
<svg id="Layer_2" xmlns="http://www.w3.org/2000/svg" version="1.1" viewBox="0 0 384.5 132.8">
  <!-- Generator: Adobe Illustrator 29.8.1, SVG Export Plug-In . SVG Version: 2.1.1 Build 2)  -->
  <defs>
    <style>
      .st0 {
        fill: gray;
      }
    </style>
  </defs>
  <g id="Layer_1-2">
    <g>
      <path class="st0" d="M125.4,73.8h-59c-4.1,0-7.4-3.3-7.4-7.4s3.3-7.4,7.4-7.4h59c4.1,0,7.4,3.3,7.4,7.4s-3.3,7.4-7.4,7.4ZM46.4,57c3.7-7.7,11.5-12.7,20-12.7h47.9c4.1,0,7.4-3.3,7.4-7.4s-3.3-7.4-7.4-7.4h-47.9c-14,0-27.1,8.3-33.3,21.1-1.8,3.7-.2,8.1,3.5,9.8,1,.5,2.1.7,3.2.7,2.7,0,5.4-1.5,6.7-4.2h0ZM121.7,95.9c0-4.1-3.3-7.4-7.4-7.4h-48.1c-8.4,0-16.2-4.9-19.9-12.5-1.8-3.7-6.2-5.2-9.8-3.5-3.7,1.8-5.2,6.2-3.5,9.8,6.1,12.7,19.1,21,33.2,21h48.1c4.1,0,7.4-3.3,7.4-7.4ZM132.8,125.4c0-4.1-3.3-7.4-7.4-7.4h-59c-4.3,0-8.6-.5-12.8-1.6-4-1-8,1.4-9,5.3s1.4,8,5.3,9c5.4,1.4,10.9,2.1,16.4,2.1h59c4.1,0,7.4-3.3,7.4-7.4h0ZM36,117.5c1.2-1.6,1.8-3.5,1.5-5.4-.3-1.9-1.2-3.7-2.8-4.9-12.7-9.9-20-24.7-20-40.7s7.3-30.8,20-40.8c3.2-2.5,3.8-7.1,1.2-10.3-2.4-3.1-7.2-3.7-10.3-1.3C9.4,26.9,0,46,0,66.5s9.4,39.6,25.7,52.3c1.3,1,2.9,1.6,4.5,1.6,2.3,0,4.4-1,5.8-2.9ZM53.6,16.4c4.2-1.1,8.4-1.6,12.8-1.6h59c4.1,0,7.4-3.3,7.4-7.4S129.5,0,125.4,0h-59c-5.6,0-11.1.7-16.5,2.1-3.9,1-6.3,5.1-5.3,9,.9,3.3,3.9,5.5,7.1,5.5s1.2,0,1.9-.2h0Z"/>
      <g>
        <path class="st0" d="M198.9,53.5c-3.1,4.3-8.6,7.1-15.6,7.1-11.4,0-19.3-7.8-19.3-19.2s7.9-19.2,19.3-19.2,11.5,2.3,14.9,6.3c.6.7,1,1.5,1,2.5,0,1.9-1.4,3.2-3.2,3.2s-2.1-.5-2.8-1.3c-2.2-2.9-5.5-4.6-9.9-4.6-7.4,0-12.6,5.4-12.6,13.2s5.1,13.2,12.6,13.2,8-1.9,10.3-5.2c.6-.8,1.6-1.3,2.7-1.3,1.9,0,3.2,1.3,3.2,3.2s-.3,1.7-.7,2.3h0Z"/>
        <path class="st0" d="M231.6,53.9c2,0,3.3,1.1,3.3,3s-1.3,3-3.3,3h-23.7c-2.2,0-3.6-1.3-3.6-3.5v-30.4c0-2.2,1.2-3.5,3.3-3.5s3.3,1.3,3.3,3.5v27.9s20.6,0,20.6,0Z"/>
        <path class="st0" d="M266.5,53.9c2,0,3.3,1.1,3.3,3s-1.3,3-3.3,3h-24.5c-2.2,0-3.6-1.3-3.6-3.5v-30c0-2.2,1.3-3.5,3.6-3.5h24.5c2,0,3.3,1.2,3.3,3s-1.3,3-3.3,3h-21.4v9.4h17.3c2,0,3.3,1.2,3.3,3s-1.2,3-3.3,3h-17.3v9.6h21.4Z"/>
        <path class="st0" d="M308.3,39.7v17c0,2.2-1.3,3.5-3.3,3.5s-3.3-1.3-3.3-3.5v-7.7h-21.1v7.7c0,2.2-1.2,3.5-3.2,3.5s-3.3-1.3-3.3-3.5v-17.1c0-11.3,6.2-17.6,17.1-17.6s17.1,6.3,17.1,17.6ZM301.7,39.4c0-7.4-3.8-11.2-10.5-11.2s-10.6,3.9-10.6,11.2v3.6h21.1v-3.6h0Z"/>
        <path class="st0" d="M348.3,26v30.2c0,2.4-1.4,4-3.8,4s-2.8-.6-3.8-1.9l-19.6-25h-.1v23.4c0,2.2-1.2,3.5-3.3,3.5s-3.2-1.3-3.2-3.5v-30.2c0-2.4,1.5-4,3.8-4s2.7.5,3.8,1.9l19.6,25.1h.1v-23.5c0-2.2,1.2-3.5,3.2-3.5s3.3,1.3,3.3,3.5h0Z"/>
        <path class="st0" d="M194.2,72.9c2,0,3.2,1.2,3.2,3.1s-1.2,3-3.2,3h-11.1v27.9c0,2.2-1.3,3.6-3.3,3.6s-3.3-1.3-3.3-3.6v-27.9h-11.2c-2,0-3.2-1.1-3.2-3s1.2-3.1,3.2-3.1h28.9Z"/>
        <path class="st0" d="M232.2,104.6c.6.8.9,1.6.9,2.4,0,2-1.3,3.3-3.3,3.3s-2.1-.6-2.8-1.5l-9.6-12.5h-9.7v10.4c0,2.2-1.2,3.6-3.3,3.6s-3.3-1.3-3.3-3.6v-30.4c0-2.2,1.3-3.6,3.6-3.6h15.7c8.1,0,12.5,3.9,12.5,11.4s-2.8,9.9-7.9,11.2h0c0,.1,7.3,9.2,7.3,9.2ZM219.6,90.3c4.2,0,6.4-2.1,6.4-5.7s-2.2-5.7-6.4-5.7h-12v11.4h12Z"/>
        <path class="st0" d="M272,89.8v17c0,2.2-1.3,3.6-3.3,3.6s-3.3-1.3-3.3-3.6v-7.7h-21.1v7.7c0,2.2-1.2,3.5-3.2,3.5s-3.3-1.3-3.3-3.5v-17.1c0-11.3,6.2-17.6,17.1-17.6s17.1,6.3,17.1,17.6ZM265.4,89.5c0-7.4-3.8-11.2-10.5-11.2s-10.6,3.9-10.6,11.2v3.6h21.1v-3.6Z"/>
        <path class="st0" d="M311.8,103.6c-3,4.3-8.6,7.1-15.6,7.1-11.4,0-19.3-7.8-19.3-19.2s7.9-19.2,19.3-19.2,11.5,2.3,14.9,6.3c.5.7,1,1.5,1,2.5,0,1.9-1.4,3.2-3.2,3.2s-2.1-.5-2.8-1.3c-2.2-2.9-5.5-4.7-9.9-4.7-7.4,0-12.6,5.4-12.6,13.2s5.1,13.2,12.6,13.2,8-1.9,10.3-5.2c.6-.8,1.6-1.3,2.7-1.3,1.9,0,3.2,1.3,3.2,3.2s-.3,1.7-.7,2.3h0Z"/>
        <path class="st0" d="M345.3,103.9c2,0,3.3,1.1,3.3,3s-1.3,3.1-3.3,3.1h-24.5c-2.2,0-3.5-1.3-3.5-3.6v-30c0-2.2,1.3-3.6,3.5-3.6h24.5c2,0,3.3,1.2,3.3,3.1s-1.3,3-3.3,3h-21.4v9.4h17.3c2,0,3.3,1.2,3.3,3s-1.2,3-3.3,3h-17.3v9.6h21.4Z"/>
        <path class="st0" d="M368.6,87.9c11.7.2,15.9,3.3,15.9,10.8s-5.9,12-16.2,12-12.6-1.9-15.7-5.5c-.5-.7-.8-1.4-.8-2.4,0-1.8,1.2-3.1,3.1-3.1s1.5.3,2.1.8c2.8,2.8,6.8,4.2,11.8,4.2s8.9-2.2,8.9-5.8-2.4-4.3-9.9-4.4c-11.4-.2-15.5-3.2-15.5-10.3s6.2-12,16-12,10.2,1.6,13.5,4.5c.6.6,1.1,1.3,1.1,2.6s-1.2,3-2.8,3-1.8-.3-2.4-.8c-2.8-2.3-6-3.3-9.9-3.3s-8.8,2.3-8.8,5.8,2.2,3.9,9.5,4h0Z"/>
      </g>
    </g>
  </g>
</svg>