<?xml version="1.0" encoding="UTF-8"?>
<svg id="Layer_2" xmlns="http://www.w3.org/2000/svg" version="1.1" viewBox="0 0 214.1 50.1">
  <!-- Generator: Adobe Illustrator 29.8.1, SVG Export Plug-In . SVG Version: 2.1.1 Build 2)  -->
  <defs>
    <style>
      .st0 {
        fill: gray;
      }
    </style>
  </defs>
  <g id="Layer_1-2">
    <g>
      <path class="st0" d="M77.1,0h-9.1v21.9c0,2.5-2,4.5-4.5,4.5h-12.3c-2.5,0-4.5-2-4.5-4.5V0h-9.5v24.2c0,5.7,4.6,10.3,10.3,10.3h19.7c5.7,0,10.3-4.6,10.3-10.3V7.1h19.7v27.6h9.3V7.1h15.6V0h-44.9c0,0,0,0,0,0Z"/>
      <polygon class="st0" points="8.1 20.5 31.2 20.5 31.2 13.5 8.1 13.5 8.1 8.1 32.4 8.1 32.4 0 0 0 0 0 0 8.1 0 13.5 0 20.5 0 26.5 0 34.6 8.1 34.6 33 34.6 33 26.5 8.1 26.5 8.1 20.5"/>
      <polygon class="st0" points="134.9 26.5 134.9 20.5 158 20.5 158 13.5 134.9 13.5 134.9 8.1 159.2 8.1 159.2 0 126.7 0 126.7 0 126.7 8.1 126.7 13.5 126.7 20.5 126.7 26.5 126.7 34.6 134.9 34.6 159.7 34.6 159.7 26.5 134.9 26.5"/>
      <polygon class="st0" points="199.1 34.6 211.5 34.6 192.2 17.9 212.9 0 200 0 185.9 12.7 172.5 0 159.2 0 179.8 17.9 159.7 34.6 173.4 34.6 185.9 23 199.1 34.6"/>
      <rect class="st0" x="98.1" y="39.4" width="1.6" height="10.6"/>
      <path class="st0" d="M109.7,46.4c0,.5,0,1,0,1.1v.5s0,.5,0,.5h0l-.4-.8c-.8-1.5-1-1.9-1.4-2.5l-3.3-5.8h-2.7v10.6h1.6v-7c0-.5,0-1.1,0-1.1v-.6s0-.5,0-.5h0l.3.7c.7,1.3.9,1.7,1.1,2.1l3.7,6.5h2.7v-10.6h-1.6v7.1h0Z"/>
      <polygon class="st0" points="112.7 40.8 116 40.8 116 50 117.6 50 117.6 40.8 120.9 40.8 120.9 39.4 112.7 39.4 112.7 40.8"/>
      <polygon class="st0" points="123.9 45.2 129.1 45.2 129.1 43.9 123.9 43.9 123.9 40.7 129.3 40.7 129.3 39.4 122.3 39.4 122.3 50 129.3 50 129.3 48.6 123.9 48.6 123.9 45.2"/>
      <path class="st0" d="M139.5,42.5c0-2.3-.8-3.1-3.3-3.1h-5.1v10.6h1.6v-3.9h3.2c1.3,0,1.8.5,1.8,1.7v2.2h1.6v-2.5c0-1.3-.6-2-1.8-2.1h0c1.5-.3,1.9-.9,1.9-3h0ZM137.3,44.4c-.3.2-.8.3-1.5.3h-3.1v-3.9h3.4c.5,0,.9,0,1.2.2.5.2.6.6.6,1.9s-.1,1.3-.5,1.6h0Z"/>
      <path class="st0" d="M149.1,46.4c0,.5,0,1,0,1.1v.5s0,.5,0,.5h0l-.4-.8c-.8-1.5-1-1.9-1.4-2.5l-3.3-5.8h-2.7v10.6h1.6v-7c0-.5,0-1.1,0-1.1v-.6s0-.5,0-.5h0l.3.7c.7,1.3.9,1.7,1.1,2.1l3.7,6.5h2.7v-10.6h-1.6v7.1h0Z"/>
      <path class="st0" d="M155.8,39.4l-3.7,10.6h1.7l.7-2.1h4.9l.8,2.1h1.7l-3.8-10.6h-2.4ZM155,46.6l2.1-6,2.1,6h-4.1Z"/>
      <polygon class="st0" points="161.3 40.8 164.5 40.8 164.5 50 166.1 50 166.1 40.8 169.4 40.8 169.4 39.4 161.3 39.4 161.3 40.8"/>
      <rect class="st0" x="170.8" y="39.4" width="1.6" height="10.6"/>
      <path class="st0" d="M181.8,39.6c-.6-.3-1.3-.3-2.9-.3s-1.8,0-2.2.1c-.9.2-1.6.6-1.9,1.2-.5.8-.6,1.5-.6,4s0,2.4.2,3.2c.2.9.7,1.5,1.4,1.9.7.3,1.3.4,3.1.4s2.2,0,2.9-.4c.8-.3,1.3-1,1.5-1.9.2-.8.2-1.2.2-3.3s0-1.9-.1-2.4c-.2-1.3-.7-2.1-1.6-2.5h0ZM181.9,44.7v1.5c0,1.1-.2,1.9-.7,2.2-.4.3-.8.3-2.3.3s-1.7,0-2.1-.2c-.5-.2-.7-.6-.8-1.3,0-.4,0-1.2,0-2.5,0-2.3,0-2.5.2-3,.3-.9.8-1,2.6-1s2,0,2.4.3c.5.3.7,1,.7,2.2v1.5h0Z"/>
      <path class="st0" d="M193.2,46.4c0,.5,0,1,0,1.1v.5s0,.5,0,.5h0l-.4-.8c-.8-1.5-1-1.9-1.4-2.5l-3.3-5.8h-2.7v10.6h1.6v-7c0-.5,0-1.1,0-1.1v-.6s0-.5,0-.5h0l.3.7c.7,1.3.9,1.7,1.1,2.1l3.7,6.5h2.7v-10.6h-1.6v7.1h0Z"/>
      <path class="st0" d="M199.9,39.4l-3.7,10.6h1.7l.7-2.1h4.9l.8,2.1h1.7l-3.8-10.6h-2.4ZM199.1,46.6l2.1-6,2.1,6h-4.1Z"/>
      <polygon class="st0" points="208.9 48.5 208.9 39.4 207.3 39.4 207.3 50 214.1 50 214.1 48.5 208.9 48.5"/>
    </g>
  </g>
</svg>