<?xml version="1.0" encoding="UTF-8"?>
<svg id="Layer_2" xmlns="http://www.w3.org/2000/svg" version="1.1" viewBox="0 0 666 157.3">
  <!-- Generator: Adobe Illustrator 29.8.1, SVG Export Plug-In . SVG Version: 2.1.1 Build 2)  -->
  <defs>
    <style>
      .st0 {
        fill: gray;
      }
    </style>
  </defs>
  <g id="Layer_1-2">
    <g>
      <g>
        <path class="st0" d="M358,75c1.2,0,2.2,1,2.2,2.2,0,4,.2,8.3.2,12.9,0,11.7-1.2,16.5-5.4,21-4.7,4.9-10.9,6.3-28.8,6.3s-16-.6-20.4-2.4c-9.9-4.2-13.7-12.1-13.7-29.1s.5-25,2.2-30.2c2.2-7.1,7.4-11.9,15-14,3.8-1,9.2-1.5,19.8-1.5s18,.7,23.1,3.7c5,2.9,7.2,8,7.8,17.8,0,1.3-1,2.3-2.2,2.3h-13.4c-1.1,0-2-.8-2.2-1.9-.9-6.2-3.5-7.2-14.7-7.2s-13.8,1.2-15.7,5.2c-1.5,3-1.6,3.5-1.7,17.4.2,16.8.2,16.9,1.6,19.9,1.6,3.8,5.7,5.1,14.9,5.1,14.5,0,17.4-3,16.2-15.2h-14.3c-1.2,0-2.2-1-2.2-2.2v-7.9c0-1.2,1-2.2,2.2-2.2h29.5Z"/>
        <path class="st0" d="M586.8,75c1.2,0,2.2,1,2.2,2.2,0,4,.2,8.3.2,12.9,0,11.7-1.2,16.5-5.4,21-4.7,4.9-10.9,6.3-28.8,6.3s-16-.6-20.4-2.4c-9.9-4.2-13.7-12.1-13.7-29.1s.5-25,2.2-30.2c2.2-7.1,7.4-11.9,15-14,3.8-1,9.2-1.5,19.8-1.5s18,.7,23.1,3.7c5,2.9,7.2,8,7.8,17.8,0,1.3-1,2.3-2.2,2.3h-13.4c-1.1,0-2-.8-2.2-1.9-.9-6.2-3.5-7.2-14.7-7.2s-13.8,1.2-15.7,5.2c-1.5,3-1.6,3.5-1.7,17.4.2,16.8.2,16.9,1.6,19.9,1.6,3.8,5.7,5.1,14.9,5.1,14.5,0,17.4-3,16.2-15.2h-14.3c-1.2,0-2.2-1-2.2-2.2v-7.9c0-1.2,1-2.2,2.2-2.2h29.5Z"/>
        <path class="st0" d="M387.8,71.8h31.6c1.2,0,2.2,1,2.2,2.2v7.9c0,1.2-1,2.2-2.2,2.2h-31.6v18h34.2c1.2,0,2.2,1,2.2,2.2v10c0,1.2-1,2.2-2.2,2.2h-49.5c-1.2,0-2.2-1-2.2-2.2V42.9c0-1.2,1-2.2,2.2-2.2h49.1c1.2,0,2.2,1,2.2,2.2v10c0,1.2-1,2.2-2.2,2.2h-33.8v16.6h0Z"/>
        <path class="st0" d="M452.4,101.5h31.4c1.2,0,2.2,1,2.2,2.2v10.7c0,1.2-1,2.2-2.2,2.2h-46.7c-1.2,0-2.2-1-2.2-2.2V42.9c0-1.2,1-2.2,2.2-2.2h13.1c1.2,0,2.2,1,2.2,2.2v58.6Z"/>
        <path class="st0" d="M508.5,116.7h-13.1c-1.2,0-2.2-1-2.2-2.2V42.9c0-1.2,1-2.2,2.2-2.2h13.1c1.2,0,2.2,1,2.2,2.2v71.5c0,1.2-1,2.2-2.2,2.2h0Z"/>
        <path class="st0" d="M614.5,102.9l-3.6,11.7c-.4,1.3-1.5,2.1-2.9,2.1h-13c-1.5,0-2.6-1.5-2.1-2.9l22.5-71c.4-1.2,1.5-2.1,2.8-2.1h22c1.3,0,2.5.8,2.8,2.1l22.8,71c.5,1.4-.6,2.9-2.1,2.9h-12.7c-1.3,0-2.5-.8-2.8-2.1l-3.7-11.7h-30ZM629.6,53.9l-11.2,36.1h22.5l-11.3-36.1Z"/>
      </g>
      <g>
        <path class="st0" d="M72.3,10.2L188.8,0c6.6-.6,11,6.5,7.8,12.2l-35.2,60.9c-7.5,13.1-21,21.6-36,22.9l-116.5,10.2c-6.6.6-11-6.5-7.8-12.2l35.2-61c7.5-13.1,21-21.6,36-22.9h0Z"/>
        <path class="st0" d="M190.6,59.7l-17.9,31.1c-7.5,13.1-21,21.6-36,22.9l-59.6,5.2c-3,.3-5.6,1.9-7.1,4.5l-12.5,21.6c-3.3,5.7,1.2,12.7,7.8,12.2l116.5-10.2c15-1.3,28.5-9.9,36-22.9l35.2-61c3.3-5.7-1.2-12.7-7.8-12.2l-47.5,4.2c-3,.3-5.6,2-7.1,4.5h0Z"/>
      </g>
    </g>
  </g>
</svg>