<?xml version="1.0" encoding="UTF-8"?>
<svg id="Layer_3" xmlns="http://www.w3.org/2000/svg" version="1.1" viewBox="0 0 876.2 149.9">
  <!-- Generator: Adobe Illustrator 30.3.0, SVG Export Plug-In . SVG Version: 2.1.3 Build 182)  -->
  <defs>
    <style>
      .st0 {
        fill: gray;
      }
    </style>
  </defs>
  <g id="Layer_1">
    <g>
      <path class="st0" d="M143.9,80.9c-2.4,1.9-5.2,3.5-8.1,4.6-1.2.4-1.8,1.7-1.5,3,.7,2.6,1.4,6.7-.5,9.6l-1.9,2.8c-4.5,6.8-7.4,14.5-8.4,22.5-8,1-15.7,3.9-22.5,8.4l-2.8,1.9c-3.2,2.1-7.2,2.3-10.6.4-3.3-1.9-5.2-5.6-5.2-9.4.3-23.5,19.5-42.6,43-42.6s12.9-2.7,17.5-7.2c1.7-1.7,3.1-3.6,4.3-5.8,4.3-8,3.8-17.8-1.2-25.4l-1.9-2.8c-4.2-6.3-6.4-13.7-6.4-21.2v-4.6c0-1.5-1.2-2.7-2.7-2.7h-4.5c-7.6,0-15-2.2-21.3-6.4l-2.3-1.5c-7.4-4.9-16.8-5.9-24.8-2.1-1.9.9-3.7,2.1-5.3,3.4-.9.7-2.2.8-3.1,0-1.3-1.1-2.7-2.1-4.2-2.9-8-4.3-17.8-3.8-25.4,1.2l-2.8,1.8c-6.3,4.2-13.8,6.5-21.4,6.5h-4.5c-1.5,0-2.7,1.2-2.7,2.7v4.5c0,7.6-2.2,15-6.4,21.3l-1.9,2.8c-6.8,10.2-3.9,19.8-1.8,24.3.7,1.4,2.5,1.8,3.8.9,2.4-1.9,5.2-3.5,8.1-4.6,1.2-.5,1.8-1.7,1.5-3-.7-2.6-1.4-6.7.5-9.5l1.9-2.8c4.5-6.8,7.4-14.5,8.4-22.5,8-1,15.7-3.9,22.5-8.4l2.8-1.9c3.2-2.1,7.2-2.3,10.6-.4,3.3,1.9,5.2,5.6,5.2,9.4-.3,23.5-19.5,42.5-43,42.5s-12.9,2.7-17.5,7.2c-1.7,1.7-3.1,3.6-4.3,5.8-4.3,8.1-3.8,17.8,1.2,25.4l1.8,2.8c4.2,6.3,6.5,13.8,6.5,21.4v4.5c0,1.5,1.2,2.7,2.7,2.7h4.5c7.6,0,15,2.2,21.3,6.4l2.3,1.5c7.4,4.9,16.8,5.9,24.8,2.1,1.9-.9,3.7-2.1,5.3-3.4.9-.7,2.2-.8,3.1,0,1.3,1.1,2.7,2.1,4.2,2.9,3.7,2,7.7,2.9,11.7,2.9s9.6-1.4,13.7-4.1l2.8-1.9c6.3-4.2,13.7-6.4,21.2-6.4h4.6c1.5,0,2.7-1.2,2.7-2.7v-4.5c0-7.6,2.2-15,6.4-21.3l1.9-2.8c6.8-10.2,3.9-19.8,1.8-24.3-.7-1.4-2.5-1.8-3.8-.9h0ZM67.8,124.8c0,3.8-1.9,7.5-5.2,9.4-3.4,1.9-7.2,1.9-10.6-.4l-2.8-1.9c-6.8-4.5-14.5-7.4-22.5-8.4-1-8-3.9-15.7-8.4-22.5l-1.9-2.8c-2.1-3.2-2.3-7.2-.4-10.6,1.9-3.3,5.6-5.2,9.4-5.2,16.3.2,30.4,9.4,37.5,23,.7,1.4,2.7,1.2,3.2-.3,1.1-3.3,2.6-6.5,4.2-9.6,1-1.9.8-4.2-.6-5.9-3.8-4.8-8.4-9-13.6-12.3-1.5-1-1.5-3.1,0-4.1,3.7-2.4,7-5.1,10-8.3,3.5-3.6,6.5-7.7,9-12.1,4.6-8.1,7.2-17.5,7.2-27.4,0-3.8,1.9-7.5,5.2-9.4,3.4-1.9,7.2-1.9,10.6.4l2.8,1.9c6.8,4.5,14.5,7.4,22.5,8.4,1,8,3.9,15.7,8.4,22.5l1.9,2.8c2.1,3.2,2.3,7.2.4,10.6s-5.6,5.2-9.4,5.2c-16.3-.2-30.4-9.5-37.5-23-.7-1.4-2.7-1.2-3.2.3-1.1,3.3-2.6,6.5-4.2,9.6-1,1.9-.8,4.2.6,5.9,3.8,4.8,8.4,9,13.6,12.3,1.5,1,1.5,3.1,0,4.1-3.7,2.4-7,5.1-10,8.3-3.5,3.6-6.5,7.7-9,12.1-4.6,8.1-7.2,17.5-7.2,27.4h0Z"/>
      <g>
        <path class="st0" d="M283.2,75.4v45.4c0,1-.9,1.9-1.9,1.9h0c-4.2,0-8.1-2.1-10.4-5.6l-.6-1c-6.2,4.4-14.7,7.2-24.5,7.2-25.7,0-46.3-17.5-46.3-48.5s20.6-48.5,46.9-48.5,23.9,4.3,31.2,12.6c.7.8.8,2.1.1,3l-3.2,4.3c-.4.5-.9.8-1.5.8h0c-.6,0-1.1-.3-1.5-.7-6.2-8.1-14.9-11.8-25.1-11.8-15.8,0-25.8,8.3-25.8,28.5v24.2c0,19.4,9.1,28.1,25.2,28.1s12.2-1.7,17.2-4.6c1.2-.7,2-2.1,2-3.5v-24.7c0-.8-.6-1.4-1.5-1.4h-15.6c-1.3,0-2.2-1.3-1.8-2.5l1.3-3.3c.5-1.3,1.7-2.2,3.1-2.2h30.5c1.3,0,2.4,1.1,2.4,2.3h0Z"/>
        <path class="st0" d="M389.8,92.8c0,17.3-8.3,30.7-34.5,30.7s-39-13.7-39-30.8V30.5c0-1.3,1-2.4,2.4-2.4h13.8c1.3,0,2.4,1,2.4,2.4v62.6c0,16.6,10.3,22.1,23.7,22.1s22.9-5.5,22.9-21.9V30.5c0-1.3,1-2.4,2.4-2.4h3.7c1.3,0,2.4,1,2.4,2.4v62.3h0Z"/>
        <path class="st0" d="M490.8,116.4l-1.3,3.3c-.5,1.3-1.7,2.1-3.1,2.1h-59.1c-1.3,0-2.4-1.1-2.4-2.3V30.5c0-1.3,1-2.4,2.4-2.4h13.8c1.3,0,2.4,1,2.4,2.4v81.9c0,.8.6,1.4,1.5,1.4h44.2c1.3,0,2.2,1.3,1.7,2.6h0Z"/>
        <path class="st0" d="M583.1,116.4l-1.3,3.3c-.5,1.3-1.7,2.1-3.1,2.1h-59.1c-1.3,0-2.3-1.1-2.3-2.3V30.5c0-1.3,1-2.4,2.3-2.4h13.8c1.3,0,2.3,1,2.3,2.4v81.9c0,.8.7,1.4,1.5,1.4h44.2c1.3,0,2.2,1.3,1.7,2.6h0Z"/>
        <path class="st0" d="M664.6,102.7h-41c-1.3,0-2.5.8-3.1,2l-6.5,15.1c-.5,1.2-1.7,2-3.1,2h-4.3c-1.3,0-2.2-1.4-1.7-2.6l38.4-89.1c.5-1.2,1.7-2,3.1-2h6.2c1.3,0,2.5.8,3.1,2l38.5,89.1c.5,1.2-.4,2.6-1.7,2.6h-15.2c-1.3,0-2.5-.8-3.1-2l-6.5-15.1c-.5-1.2-1.7-2-3.1-2h0ZM662.5,92.7l-17.3-40.1c-.4-1-1.8-1-2.3,0l-17.3,40.1c-.4.9.3,1.9,1.3,1.9h34.3c1,0,1.7-1,1.3-1.9h0Z"/>
        <path class="st0" d="M748.9,37.6v81.9c0,1.3-1,2.3-2.3,2.3h-13.6c-1.3,0-2.3-1.1-2.3-2.3V37.6c0-.8-.7-1.5-1.5-1.5h-27.9c-1.3,0-2.2-1.3-1.7-2.6l1.3-3.4c.5-1.3,1.7-2.1,3.1-2.1h71.6c1.4,0,2.6.8,3.1,2.1l1.3,3.4c.5,1.2-.4,2.6-1.7,2.6h-27.9c-.8,0-1.5.7-1.5,1.5h0Z"/>
        <path class="st0" d="M808.7,28.1h59.6c1.4,0,2.6.8,3.1,2.1l1.3,3.4c.5,1.2-.4,2.6-1.7,2.6h-44.5c-.8,0-1.5.7-1.5,1.5v29.8c0,.8.7,1.4,1.5,1.4h32.6c1.3,0,2.3,1.1,2.3,2.3v3.3c0,1.3-1,2.3-2.3,2.3h-32.6c-.8,0-1.5.7-1.5,1.4v34c0,.8.7,1.4,1.5,1.4h47.9c1.3,0,2.2,1.3,1.7,2.6l-1.3,3.3c-.5,1.3-1.7,2.1-3.1,2.1h-63c-1.3,0-2.3-1.1-2.3-2.3V30.5c0-1.3,1-2.4,2.3-2.4h0ZM847.1,2.6c.9-1.6,2.6-2.6,4.4-2.6h11.7c.6,0,1.1.5,1.1,1.1h0c0,.3-.1.6-.3.8l-18.8,18.1c-.9.9-2.2,1.4-3.5,1.4h-3.3c-.9,0-1.4-.9-1-1.7l9.7-17.2h0Z"/>
      </g>
    </g>
  </g>
</svg>