<?xml version="1.0" encoding="UTF-8"?>
<svg id="Layer_1" xmlns="http://www.w3.org/2000/svg" version="1.1" viewBox="0 0 608.7 170.1">
  <!-- Generator: Adobe Illustrator 30.3.0, SVG Export Plug-In . SVG Version: 2.1.3 Build 182)  -->
  <defs>
    <style>
      .st0 {
        fill: gray;
      }
    </style>
  </defs>
  <path class="st0" d="M198.5,132.3V48h29.1c6.7,0,12.3,1.1,16.7,3.4,4.4,2.3,7.7,5.3,9.9,9.1,2.2,3.8,3.3,8,3.3,12.6s-1,7.9-2.9,11.7c-1.9,3.8-5.1,7-9.4,9.5-4.3,2.5-10.2,3.8-17.5,3.8h-15.3v34.2h-13.8ZM212.3,86.8h15.3c5.4,0,9.4-1.2,11.9-3.7,2.5-2.5,3.8-5.8,3.8-10s-1.3-7.8-3.8-10.2c-2.5-2.4-6.5-3.6-11.9-3.6h-15.3v27.5Z"/>
  <path class="st0" d="M297.3,133.2c-5.4,0-10.3-.8-14.7-2.5-4.4-1.7-8.2-4.1-11.3-7.2-3.1-3.1-5.5-6.7-7.2-10.7-1.7-4.1-2.5-8.6-2.5-13.4s1-10,2.9-14.3c1.9-4.2,4.5-7.9,7.8-11,3.3-3.1,7.1-5.4,11.3-7,4.3-1.6,8.8-2.4,13.5-2.4s8,.6,11.5,1.7c3.5,1.1,6.5,2.7,9,4.7,2.5,2,4.5,4.4,5.9,7,1.4,2.7,2.1,5.5,2.1,8.6s-1.3,7.8-3.8,10.7c-2.5,2.8-5.8,5.1-9.8,6.7-4,1.6-8.5,2.7-13.3,3.3-4.9.6-9.7.7-14.4.5-.8,0-1.8-.1-3-.2-1.2,0-2.3,0-3.2-.1-.9,0-1.4,0-1.5,0,.6,2.7,1.8,5.1,3.8,7.2,2,2.1,4.5,3.8,7.5,5,3,1.2,6.2,1.8,9.6,1.8s5.5-.5,8.2-1.5c2.7-1,5.2-2.3,7.5-4,2.3-1.7,4.2-3.6,5.7-5.8l10.3,7.4c-2.7,3.6-5.7,6.5-9,8.8-3.4,2.3-6.9,4-10.7,5.1-3.8,1.1-7.8,1.6-11.9,1.6M285.4,96.8c3,0,6-.1,9.1-.4,3.1-.3,5.9-.8,8.6-1.6,2.6-.8,4.8-1.8,6.4-3.2,1.6-1.4,2.4-3.2,2.4-5.3s-.6-3.5-1.8-5c-1.2-1.5-2.8-2.7-4.9-3.6-2.1-.9-4.6-1.3-7.4-1.3-4.2,0-8,.9-11.3,2.8-3.3,1.9-5.9,4.3-7.8,7.4-1.9,3.1-2.9,6.4-3.1,9.9,1.1,0,2.5.2,4.2.2,1.7,0,3.6.1,5.6.1"/>
  <path class="st0" d="M372.8,64.6v14.3c-.6-.2-1.3-.3-1.9-.3-.6,0-1.2,0-1.9,0-3.3,0-6.2.7-8.7,2.2-2.5,1.5-4.5,3.7-5.9,6.7-1.4,3-2.1,6.7-2.1,11.1v33.7h-13.8v-66.8h13.8v14.7c1.6-4.8,4.3-8.6,7.9-11.3,3.7-2.8,7.9-4.2,12.6-4.2"/>
  <path class="st0" d="M388.6,56.6c-2.9,0-5.4-.9-7.4-2.8-2-1.9-3-4.2-3-6.9s1-5.1,3-7c2-1.9,4.5-2.9,7.4-2.9s5.3,1,7.3,2.9c2.1,1.9,3.1,4.2,3.1,7s-1,5.1-3.1,6.9c-2.1,1.9-4.5,2.8-7.3,2.8M381.6,65.5h13.8v66.8h-13.8v-66.8Z"/>
  <path class="st0" d="M410.9,132.3v-66.8h13.8v14c1.1-2.8,2.7-5.4,5-7.6,2.3-2.2,4.9-4,7.8-5.3,3-1.3,5.9-1.9,8.9-1.9,5.1,0,9.6,1.1,13.4,3.3,3.8,2.2,6.8,5.4,9,9.6,2.1,4.2,3.2,9.3,3.2,15.3v39.4h-13.7v-36.2c0-6.1-1.5-10.8-4.6-14.3-3.1-3.5-7.1-5.2-12.1-5.2s-6.1.9-8.7,2.7c-2.5,1.8-4.5,4.2-6,7.3-1.5,3.1-2.2,6.7-2.2,10.7v34.9h-13.8Z"/>
  <path class="st0" d="M522,127c-2.3,2.2-4.6,3.8-6.9,4.7-2.3,1-5,1.5-8,1.5-5.1,0-9.3-1.7-12.7-5.2-3.4-3.5-5.1-8.2-5.1-14.2v-37h-10.3v-11.3h5c1.7,0,3-.5,3.9-1.5.9-1,1.4-2.3,1.4-4v-11.2h14v8.9c0,1.1-.3,2.2-.9,3.3-.6,1.1-1.4,2-2.4,2.8-1,.8-2.1,1.3-3.3,1.6h22.8v11.3h-16.3v37.9c0,2.3.6,3.9,1.8,4.9,1.2,1,2.4,1.5,3.8,1.5s2.3-.2,3.3-.6c1-.4,1.9-1,2.8-1.9l7.2,8.6Z"/>
  <path class="st0" d="M537.9,56.6c-2.9,0-5.4-.9-7.4-2.8-2-1.9-3-4.2-3-6.9s1-5.1,3-7c2-1.9,4.5-2.9,7.4-2.9s5.3,1,7.3,2.9c2.1,1.9,3.1,4.2,3.1,7s-1,5.1-3.1,6.9c-2.1,1.9-4.5,2.8-7.3,2.8M530.9,65.5h13.8v66.8h-13.8v-66.8Z"/>
  <path class="st0" d="M583.1,133.2c-4.7,0-8.9-.8-12.6-2.5-3.7-1.7-6.8-3.9-9.2-6.7-2.4-2.8-4.1-5.9-5-9.2l13.2-2.9c.8,3,2.4,5.4,4.9,7.1,2.5,1.7,5.3,2.6,8.4,2.6s7.1-.7,9.2-2.2c2.1-1.5,3.1-3.4,3.1-5.6s-.9-3.9-2.8-5.1c-1.9-1.2-4.3-2.2-7.2-3-3-.8-6.1-1.7-9.4-2.5-3.3-.9-6.5-2.1-9.4-3.5-3-1.5-5.4-3.4-7.2-5.9-1.9-2.5-2.8-5.7-2.8-9.8s1.1-6.8,3.2-9.7c2.1-2.9,5.1-5.2,8.9-6.9,3.8-1.7,8.4-2.5,13.6-2.5s8.5.7,12,2.2c3.5,1.5,6.3,3.5,8.6,6.1,2.3,2.6,3.8,5.8,4.6,9.4l-13.2,3.4c-.8-3.1-2.2-5.4-4.2-7-2-1.6-4.8-2.4-8.2-2.4s-6.5.7-8.4,2c-1.9,1.3-2.9,3.1-2.9,5.4s.9,3.9,2.8,5.2c1.9,1.3,4.2,2.3,7.2,3.2,2.9.8,6,1.7,9.3,2.6,3.3.9,6.4,2,9.3,3.5,2.9,1.4,5.3,3.4,7.2,5.8,1.9,2.5,2.8,5.7,2.8,9.6s-1,6.7-3.1,9.7c-2.1,3-5,5.4-8.9,7.2-3.8,1.8-8.4,2.7-13.6,2.7"/>
  <path class="st0" d="M85.1,170.1c-15.6,0-28.4-12.7-28.4-28.4v-11.8C24.1,121.5,0,91.9,0,56.7v-9.5C0,21.2,21.2,0,47.3,0h37.8C132,0,170.1,38.2,170.1,85.1s-38.2,85.1-85.1,85.1M75.6,132.3v9.5c0,5.2,4.2,9.5,9.5,9.5,36.5,0,66.2-29.7,66.2-66.2S121.5,18.9,85.1,18.9h-37.8c-15.6,0-28.4,12.7-28.4,28.4v9.5c0,24.6,15.8,45.7,37.8,53.5v-34.6c0-20.8,17-37.8,37.8-37.8s37.8,17,37.8,37.8c0,31.3-25.4,56.7-56.7,56.7M94.5,56.7c-10.4,0-18.9,8.5-18.9,18.9v37.8c20.8,0,37.8-17,37.8-37.8s-8.5-18.9-18.9-18.9"/>
</svg>