<?xml version="1.0" encoding="UTF-8"?>
<svg id="Layer_2" xmlns="http://www.w3.org/2000/svg" version="1.1" viewBox="0 0 476.4 198.8">
  <!-- Generator: Adobe Illustrator 29.8.1, SVG Export Plug-In . SVG Version: 2.1.1 Build 2)  -->
  <defs>
    <style>
      .st0 {
        fill: gray;
      }
    </style>
  </defs>
  <g id="Layer_1-2">
    <g>
      <g>
        <path class="st0" d="M244.7,25.4l-25.6,63.9h-9.6l-25.7-63.9h14.3l16.2,42.7,16.1-42.7h14.3Z"/>
        <path class="st0" d="M296.8,89.3l-18.4-30.6-10.9,11.1v19.5h-12.9V25.4h12.9v28.2l26.9-28.2h17l-24.1,24.5,24.5,39.4h-15Z"/>
        <path class="st0" d="M321.8,25.4h12.9v52h26.8v11.9h-39.7V25.4h0Z"/>
        <path class="st0" d="M253.8,110.1v63.3h-5.9v-55.2l-20.8,50h-6l-20.8-50.1v55.3h-5.9v-63.3h8.5l21.3,51.2,21.2-51.2h8.5Z"/>
        <path class="st0" d="M276,110.1h41.4v5.7h-35.2v23h31.7v5.7h-31.7v23.1h35.2v5.8h-41.4v-63.3h0Z"/>
        <path class="st0" d="M334.3,110.1h17.1c21,0,32.3,11.5,32.3,32.1s-11.6,31.2-32.4,31.2h-17s0-63.3,0-63.3ZM350.8,167.7c16.8,0,26.8-8.1,26.8-25.7s-8.5-26.2-26.2-26.2h-10.8v51.9h10.3Z"/>
        <path class="st0" d="M402.4,110.1h6.1v63.3h-6.1v-63.3Z"/>
        <path class="st0" d="M447.8,110.1h5.1l23.5,63.3h-6.7l-5.4-15.3h-27.9l-5.5,15.3h-6.7l23.5-63.3h0ZM462.4,152.8l-12-34.1-12,34.1h24Z"/>
      </g>
      <path class="st0" d="M7.6,196.7c4.8,2.8,10.5,2.8,15.3,0h0l111.2-64.2c12-6.9,19.1-19.3,19.1-33.1s-7.1-26.2-19.1-33.1L22.9,2.1C18.1-.7,12.4-.7,7.6,2.1,2.9,4.8,0,9.8,0,15.3v35.8c0,13.6,7.3,26.3,19.1,33.1l26.2,15.1-26.2,15.1C7.3,121.3,0,134,0,147.6v35.8c0,5.5,2.9,10.5,7.6,13.2h0ZM60.6,90.6l-33.8-19.5c-7.1-4.1-11.5-11.7-11.5-19.9V15.3l53.4,30.8c7.2,4.1,11.5,11.6,11.5,19.9s-4.3,15.7-11.5,19.9l-8.1,4.7ZM126.5,119.2L15.3,183.4v-35.8c0-8.2,4.4-15.8,11.5-19.9l49.6-28.6c12-6.9,19.1-19.3,19.1-33.1s0-3.1-.3-4.6l31.3,18.1c7.2,4.1,11.5,11.6,11.5,19.9s-4.3,15.7-11.5,19.9h0Z"/>
    </g>
  </g>
</svg>